<svg width="383" height="464" viewBox="0 0 383 464" fill="none" xmlns="http://www.w3.org/2000/svg">
<rect width="383" height="464" fill="url(#paint0_linear_1_257)"/>
<path d="M59.32 312.82V316.18H53.47V334H49.24V316.18H43.42V312.82H59.32ZM77.2785 325.06C77.2785 325.48 77.2285 325.96 77.1285 326.5H64.9485C65.0085 327.98 65.4085 329.07 66.1485 329.77C66.8885 330.47 67.8085 330.82 68.9085 330.82C69.8885 330.82 70.6985 330.58 71.3385 330.1C71.9985 329.62 72.4185 328.97 72.5985 328.15H77.0685C76.8485 329.31 76.3785 330.35 75.6585 331.27C74.9385 332.19 74.0085 332.91 72.8685 333.43C71.7485 333.95 70.4985 334.21 69.1185 334.21C67.4985 334.21 66.0585 333.87 64.7985 333.19C63.5385 332.49 62.5585 331.5 61.8585 330.22C61.1585 328.94 60.8085 327.43 60.8085 325.69C60.8085 323.95 61.1585 322.44 61.8585 321.16C62.5585 319.86 63.5385 318.87 64.7985 318.19C66.0585 317.51 67.4985 317.17 69.1185 317.17C70.7585 317.17 72.1885 317.51 73.4085 318.19C74.6485 318.87 75.5985 319.81 76.2585 321.01C76.9385 322.19 77.2785 323.54 77.2785 325.06ZM73.0185 324.64C73.0785 323.28 72.7185 322.25 71.9385 321.55C71.1785 320.85 70.2385 320.5 69.1185 320.5C67.9785 320.5 67.0185 320.85 66.2385 321.55C65.4585 322.25 65.0285 323.28 64.9485 324.64H73.0185ZM87.7513 317.17C89.8913 317.17 91.6713 317.75 93.0913 318.91C94.5313 320.07 95.4313 321.65 95.7913 323.65H91.3213C91.1413 322.77 90.7313 322.08 90.0913 321.58C89.4513 321.06 88.6413 320.8 87.6613 320.8C86.5413 320.8 85.6013 321.22 84.8413 322.06C84.1013 322.88 83.7313 324.09 83.7313 325.69C83.7313 327.29 84.1013 328.51 84.8413 329.35C85.6013 330.17 86.5413 330.58 87.6613 330.58C88.6413 330.58 89.4513 330.33 90.0913 329.83C90.7313 329.31 91.1413 328.61 91.3213 327.73H95.7913C95.4313 329.73 94.5313 331.31 93.0913 332.47C91.6713 333.63 89.8913 334.21 87.7513 334.21C86.1313 334.21 84.6913 333.87 83.4313 333.19C82.1713 332.49 81.1913 331.5 80.4913 330.22C79.7913 328.94 79.4413 327.43 79.4413 325.69C79.4413 323.95 79.7913 322.44 80.4913 321.16C81.1913 319.86 82.1713 318.87 83.4313 318.19C84.6913 317.51 86.1313 317.17 87.7513 317.17ZM108.697 317.14C110.617 317.14 112.147 317.77 113.287 319.03C114.427 320.29 114.997 322.06 114.997 324.34V334H110.797V324.82C110.797 323.5 110.457 322.48 109.777 321.76C109.097 321.02 108.167 320.65 106.987 320.65C105.787 320.65 104.827 321.04 104.107 321.82C103.387 322.6 103.027 323.72 103.027 325.18V334H98.797V311.8H103.027V320.71C103.467 319.59 104.187 318.72 105.187 318.1C106.207 317.46 107.377 317.14 108.697 317.14ZM128.619 317.14C130.539 317.14 132.069 317.77 133.209 319.03C134.349 320.29 134.919 322.06 134.919 324.34V334H130.719V324.82C130.719 323.5 130.379 322.48 129.699 321.76C129.019 321.02 128.089 320.65 126.909 320.65C125.709 320.65 124.749 321.04 124.029 321.82C123.309 322.6 122.949 323.72 122.949 325.18V334H118.719V317.38H122.949V320.71C123.389 319.59 124.109 318.72 125.109 318.1C126.129 317.46 127.299 317.14 128.619 317.14ZM138.161 312.61C138.161 311.93 138.401 311.38 138.881 310.96C139.361 310.52 139.991 310.3 140.771 310.3C141.551 310.3 142.181 310.52 142.661 310.96C143.141 311.38 143.381 311.93 143.381 312.61C143.381 313.27 143.141 313.82 142.661 314.26C142.181 314.68 141.551 314.89 140.771 314.89C139.991 314.89 139.361 314.68 138.881 314.26C138.401 313.82 138.161 313.27 138.161 312.61ZM142.871 317.38V334H138.641V317.38H142.871ZM154.167 317.17C156.307 317.17 158.087 317.75 159.507 318.91C160.947 320.07 161.847 321.65 162.207 323.65H157.737C157.557 322.77 157.147 322.08 156.507 321.58C155.867 321.06 155.057 320.8 154.077 320.8C152.957 320.8 152.017 321.22 151.257 322.06C150.517 322.88 150.147 324.09 150.147 325.69C150.147 327.29 150.517 328.51 151.257 329.35C152.017 330.17 152.957 330.58 154.077 330.58C155.057 330.58 155.867 330.33 156.507 329.83C157.147 329.31 157.557 328.61 157.737 327.73H162.207C161.847 329.73 160.947 331.31 159.507 332.47C158.087 333.63 156.307 334.21 154.167 334.21C152.547 334.21 151.107 333.87 149.847 333.19C148.587 332.49 147.607 331.5 146.907 330.22C146.207 328.94 145.857 327.43 145.857 325.69C145.857 323.95 146.207 322.44 146.907 321.16C147.607 319.86 148.587 318.87 149.847 318.19C151.107 317.51 152.547 317.17 154.167 317.17ZM171.723 317.17C173.123 317.17 174.323 317.5 175.323 318.16C176.323 318.82 177.033 319.71 177.453 320.83V317.38H181.653V334H177.453V330.52C177.033 331.64 176.323 332.54 175.323 333.22C174.323 333.88 173.123 334.21 171.723 334.21C170.323 334.21 169.063 333.87 167.943 333.19C166.823 332.51 165.943 331.53 165.303 330.25C164.683 328.95 164.373 327.43 164.373 325.69C164.373 323.95 164.683 322.44 165.303 321.16C165.943 319.86 166.823 318.87 167.943 318.19C169.063 317.51 170.323 317.17 171.723 317.17ZM173.043 320.86C171.723 320.86 170.663 321.29 169.863 322.15C169.063 323.01 168.663 324.19 168.663 325.69C168.663 327.19 169.063 328.37 169.863 329.23C170.663 330.07 171.723 330.49 173.043 330.49C174.323 330.49 175.373 330.06 176.193 329.2C177.033 328.32 177.453 327.15 177.453 325.69C177.453 324.21 177.033 323.04 176.193 322.18C175.373 321.3 174.323 320.86 173.043 320.86ZM189.716 311.8V334H185.486V311.8H189.716ZM212.976 329.74H204.486L202.986 334H198.516L206.316 313.06H211.146L218.916 334H214.446L212.976 329.74ZM211.836 326.53L208.716 317.59L205.596 326.53H211.836ZM231.099 317.14C233.019 317.14 234.549 317.77 235.689 319.03C236.829 320.29 237.399 322.06 237.399 324.34V334H233.199V324.82C233.199 323.5 232.859 322.48 232.179 321.76C231.499 321.02 230.569 320.65 229.389 320.65C228.189 320.65 227.229 321.04 226.509 321.82C225.789 322.6 225.429 323.72 225.429 325.18V334H221.199V317.38H225.429V320.71C225.869 319.59 226.589 318.72 227.589 318.1C228.609 317.46 229.779 317.14 231.099 317.14ZM247.631 317.17C249.031 317.17 250.231 317.5 251.231 318.16C252.231 318.82 252.941 319.71 253.361 320.83V317.38H257.561V334H253.361V330.52C252.941 331.64 252.231 332.54 251.231 333.22C250.231 333.88 249.031 334.21 247.631 334.21C246.231 334.21 244.971 333.87 243.851 333.19C242.731 332.51 241.851 331.53 241.211 330.25C240.591 328.95 240.281 327.43 240.281 325.69C240.281 323.95 240.591 322.44 241.211 321.16C241.851 319.86 242.731 318.87 243.851 318.19C244.971 317.51 246.231 317.17 247.631 317.17ZM248.951 320.86C247.631 320.86 246.571 321.29 245.771 322.15C244.971 323.01 244.571 324.19 244.571 325.69C244.571 327.19 244.971 328.37 245.771 329.23C246.571 330.07 247.631 330.49 248.951 330.49C250.231 330.49 251.281 330.06 252.101 329.2C252.941 328.32 253.361 327.15 253.361 325.69C253.361 324.21 252.941 323.04 252.101 322.18C251.281 321.3 250.231 320.86 248.951 320.86ZM265.625 311.8V334H261.395V311.8H265.625ZM272.301 317.38L276.831 328.66L281.031 317.38H285.681L275.511 341.92H270.831L274.581 333.52L267.591 317.38H272.301ZM293.404 317.17C295.424 317.17 297.044 317.68 298.264 318.7C299.484 319.72 300.244 321.08 300.544 322.78H296.584C296.424 321.98 296.064 321.34 295.504 320.86C294.944 320.38 294.214 320.14 293.314 320.14C292.594 320.14 292.034 320.31 291.634 320.65C291.234 320.99 291.034 321.45 291.034 322.03C291.034 322.49 291.194 322.86 291.514 323.14C291.834 323.42 292.234 323.64 292.714 323.8C293.194 323.96 293.884 324.15 294.784 324.37C296.044 324.65 297.064 324.95 297.844 325.27C298.644 325.57 299.324 326.06 299.884 326.74C300.464 327.4 300.754 328.3 300.754 329.44C300.754 330.86 300.194 332.01 299.074 332.89C297.974 333.77 296.484 334.21 294.604 334.21C292.444 334.21 290.714 333.73 289.414 332.77C288.114 331.79 287.324 330.4 287.044 328.6H291.094C291.194 329.42 291.554 330.07 292.174 330.55C292.794 331.01 293.604 331.24 294.604 331.24C295.324 331.24 295.874 331.07 296.254 330.73C296.634 330.37 296.824 329.91 296.824 329.35C296.824 328.87 296.654 328.48 296.314 328.18C295.994 327.88 295.584 327.65 295.084 327.49C294.604 327.33 293.914 327.14 293.014 326.92C291.774 326.64 290.764 326.36 289.984 326.08C289.224 325.78 288.564 325.31 288.004 324.67C287.464 324.03 287.194 323.15 287.194 322.03C287.194 320.59 287.744 319.42 288.844 318.52C289.944 317.62 291.464 317.17 293.404 317.17ZM303.424 312.61C303.424 311.93 303.664 311.38 304.144 310.96C304.624 310.52 305.254 310.3 306.034 310.3C306.814 310.3 307.444 310.52 307.924 310.96C308.404 311.38 308.644 311.93 308.644 312.61C308.644 313.27 308.404 313.82 307.924 314.26C307.444 314.68 306.814 314.89 306.034 314.89C305.254 314.89 304.624 314.68 304.144 314.26C303.664 313.82 303.424 313.27 303.424 312.61ZM308.134 317.38V334H303.904V317.38H308.134ZM317.691 317.17C319.711 317.17 321.331 317.68 322.551 318.7C323.771 319.72 324.531 321.08 324.831 322.78H320.871C320.711 321.98 320.351 321.34 319.791 320.86C319.231 320.38 318.501 320.14 317.601 320.14C316.881 320.14 316.321 320.31 315.921 320.65C315.521 320.99 315.321 321.45 315.321 322.03C315.321 322.49 315.481 322.86 315.801 323.14C316.121 323.42 316.521 323.64 317.001 323.8C317.481 323.96 318.171 324.15 319.071 324.37C320.331 324.65 321.351 324.95 322.131 325.27C322.931 325.57 323.611 326.06 324.171 326.74C324.751 327.4 325.041 328.3 325.041 329.44C325.041 330.86 324.481 332.01 323.361 332.89C322.261 333.77 320.771 334.21 318.891 334.21C316.731 334.21 315.001 333.73 313.701 332.77C312.401 331.79 311.611 330.4 311.331 328.6H315.381C315.481 329.42 315.841 330.07 316.461 330.55C317.081 331.01 317.891 331.24 318.891 331.24C319.611 331.24 320.161 331.07 320.541 330.73C320.921 330.37 321.111 329.91 321.111 329.35C321.111 328.87 320.941 328.48 320.601 328.18C320.281 327.88 319.871 327.65 319.371 327.49C318.891 327.33 318.201 327.14 317.301 326.92C316.061 326.64 315.051 326.36 314.271 326.08C313.511 325.78 312.851 325.31 312.291 324.67C311.751 324.03 311.481 323.15 311.481 322.03C311.481 320.59 312.031 319.42 313.131 318.52C314.231 317.62 315.751 317.17 317.691 317.17Z" fill="white"/>
<path d="M51.08 361.72V362.904H47.896V373H46.44V362.904H43.256V361.72H51.08ZM57.1514 364.072C58.1754 364.072 59.002 364.403 59.6314 365.064C60.2607 365.715 60.5754 366.659 60.5754 367.896V373H59.1194V368.024C59.1194 367.149 58.8954 366.477 58.4474 366.008C57.9994 365.539 57.3914 365.304 56.6234 365.304C55.8234 365.304 55.1834 365.565 54.7034 366.088C54.2234 366.6 53.9834 367.352 53.9834 368.344V373H52.5274V361.16H53.9834V366.296C54.2074 365.581 54.602 365.032 55.1674 364.648C55.7434 364.264 56.4047 364.072 57.1514 364.072ZM70.8886 368.12C70.8886 368.429 70.8673 368.696 70.8246 368.92H63.8006C63.8326 369.923 64.1153 370.675 64.6486 371.176C65.1926 371.677 65.854 371.928 66.6326 371.928C67.3366 371.928 67.9233 371.752 68.3926 371.4C68.8726 371.037 69.166 370.557 69.2726 369.96H70.8246C70.718 370.568 70.478 371.112 70.1046 371.592C69.742 372.072 69.2673 372.445 68.6806 372.712C68.094 372.979 67.4326 373.112 66.6966 373.112C65.854 373.112 65.1073 372.931 64.4566 372.568C63.806 372.205 63.294 371.688 62.9206 371.016C62.558 370.333 62.3766 369.533 62.3766 368.616C62.3766 367.699 62.558 366.899 62.9206 366.216C63.294 365.533 63.806 365.011 64.4566 364.648C65.1073 364.285 65.854 364.104 66.6966 364.104C67.55 364.104 68.2913 364.285 68.9206 364.648C69.5606 365.011 70.046 365.496 70.3766 366.104C70.718 366.712 70.8886 367.384 70.8886 368.12ZM69.4166 368.216C69.4486 367.565 69.342 367.021 69.0966 366.584C68.8513 366.147 68.5153 365.821 68.0886 365.608C67.662 365.395 67.198 365.288 66.6966 365.288C65.8966 365.288 65.2246 365.539 64.6806 366.04C64.1366 366.531 63.8433 367.256 63.8006 368.216H69.4166ZM74.249 365.992C74.537 365.384 74.9583 364.915 75.513 364.584C76.0677 364.243 76.729 364.072 77.497 364.072V365.656H77.049C76.2277 365.656 75.5557 365.869 75.033 366.296C74.5103 366.712 74.249 367.405 74.249 368.376V373H72.793V364.216H74.249V365.992ZM87.0136 368.12C87.0136 368.429 86.9923 368.696 86.9496 368.92H79.9256C79.9576 369.923 80.2403 370.675 80.7736 371.176C81.3176 371.677 81.979 371.928 82.7576 371.928C83.4616 371.928 84.0483 371.752 84.5176 371.4C84.9976 371.037 85.291 370.557 85.3976 369.96H86.9496C86.843 370.568 86.603 371.112 86.2296 371.592C85.867 372.072 85.3923 372.445 84.8056 372.712C84.219 372.979 83.5576 373.112 82.8216 373.112C81.979 373.112 81.2323 372.931 80.5816 372.568C79.931 372.205 79.419 371.688 79.0456 371.016C78.683 370.333 78.5016 369.533 78.5016 368.616C78.5016 367.699 78.683 366.899 79.0456 366.216C79.419 365.533 79.931 365.011 80.5816 364.648C81.2323 364.285 81.979 364.104 82.8216 364.104C83.675 364.104 84.4163 364.285 85.0456 364.648C85.6856 365.011 86.171 365.496 86.5016 366.104C86.843 366.712 87.0136 367.384 87.0136 368.12ZM85.5416 368.216C85.5736 367.565 85.467 367.021 85.2216 366.584C84.9763 366.147 84.6403 365.821 84.2136 365.608C83.787 365.395 83.323 365.288 82.8216 365.288C82.0216 365.288 81.3496 365.539 80.8056 366.04C80.2616 366.531 79.9683 367.256 79.9256 368.216H85.5416ZM96.4711 364.104C97.3245 364.104 98.0445 364.317 98.6311 364.744C99.2285 365.171 99.6445 365.741 99.8791 366.456V364.216H101.335V373H99.8791V370.76C99.6445 371.475 99.2285 372.045 98.6311 372.472C98.0445 372.899 97.3245 373.112 96.4711 373.112C95.6925 373.112 94.9991 372.931 94.3911 372.568C93.7831 372.205 93.3031 371.688 92.9511 371.016C92.6098 370.333 92.4391 369.533 92.4391 368.616C92.4391 367.699 92.6098 366.899 92.9511 366.216C93.3031 365.533 93.7831 365.011 94.3911 364.648C94.9991 364.285 95.6925 364.104 96.4711 364.104ZM96.8871 365.4C95.9911 365.4 95.2711 365.688 94.7271 366.264C94.1938 366.829 93.9271 367.613 93.9271 368.616C93.9271 369.619 94.1938 370.408 94.7271 370.984C95.2711 371.549 95.9911 371.832 96.8871 371.832C97.4631 371.832 97.9751 371.699 98.4231 371.432C98.8818 371.165 99.2391 370.792 99.4951 370.312C99.7511 369.821 99.8791 369.256 99.8791 368.616C99.8791 367.976 99.7511 367.411 99.4951 366.92C99.2391 366.429 98.8818 366.056 98.4231 365.8C97.9751 365.533 97.4631 365.4 96.8871 365.4ZM105.108 365.992C105.396 365.384 105.818 364.915 106.372 364.584C106.927 364.243 107.588 364.072 108.356 364.072V365.656H107.908C107.087 365.656 106.415 365.869 105.892 366.296C105.37 366.712 105.108 367.405 105.108 368.376V373H103.652V364.216H105.108V365.992ZM117.873 368.12C117.873 368.429 117.852 368.696 117.809 368.92H110.785C110.817 369.923 111.1 370.675 111.633 371.176C112.177 371.677 112.838 371.928 113.617 371.928C114.321 371.928 114.908 371.752 115.377 371.4C115.857 371.037 116.15 370.557 116.257 369.96H117.809C117.702 370.568 117.462 371.112 117.089 371.592C116.726 372.072 116.252 372.445 115.665 372.712C115.078 372.979 114.417 373.112 113.681 373.112C112.838 373.112 112.092 372.931 111.441 372.568C110.79 372.205 110.278 371.688 109.905 371.016C109.542 370.333 109.361 369.533 109.361 368.616C109.361 367.699 109.542 366.899 109.905 366.216C110.278 365.533 110.79 365.011 111.441 364.648C112.092 364.285 112.838 364.104 113.681 364.104C114.534 364.104 115.276 364.285 115.905 364.648C116.545 365.011 117.03 365.496 117.361 366.104C117.702 366.712 117.873 367.384 117.873 368.12ZM116.401 368.216C116.433 367.565 116.326 367.021 116.081 366.584C115.836 366.147 115.5 365.821 115.073 365.608C114.646 365.395 114.182 365.288 113.681 365.288C112.881 365.288 112.209 365.539 111.665 366.04C111.121 366.531 110.828 367.256 110.785 368.216H116.401ZM134.531 364.072C135.555 364.072 136.376 364.403 136.995 365.064C137.624 365.715 137.939 366.659 137.939 367.896V373H136.483V368.024C136.483 367.16 136.269 366.499 135.843 366.04C135.427 365.581 134.851 365.352 134.115 365.352C133.347 365.352 132.728 365.608 132.259 366.12C131.8 366.621 131.571 367.363 131.571 368.344V373H130.115V368.024C130.115 367.16 129.901 366.499 129.475 366.04C129.048 365.581 128.472 365.352 127.747 365.352C126.968 365.352 126.344 365.608 125.875 366.12C125.416 366.621 125.187 367.363 125.187 368.344V373H123.731V364.216H125.187V366.216C125.4 365.523 125.779 364.995 126.323 364.632C126.877 364.259 127.512 364.072 128.227 364.072C128.973 364.072 129.619 364.264 130.163 364.648C130.717 365.021 131.112 365.576 131.347 366.312C131.592 365.597 132.003 365.048 132.579 364.664C133.155 364.269 133.805 364.072 134.531 364.072ZM143.799 364.104C144.653 364.104 145.373 364.317 145.959 364.744C146.557 365.171 146.973 365.741 147.207 366.456V364.216H148.663V373H147.207V370.76C146.973 371.475 146.557 372.045 145.959 372.472C145.373 372.899 144.653 373.112 143.799 373.112C143.021 373.112 142.327 372.931 141.719 372.568C141.111 372.205 140.631 371.688 140.279 371.016C139.938 370.333 139.767 369.533 139.767 368.616C139.767 367.699 139.938 366.899 140.279 366.216C140.631 365.533 141.111 365.011 141.719 364.648C142.327 364.285 143.021 364.104 143.799 364.104ZM144.215 365.4C143.319 365.4 142.599 365.688 142.055 366.264C141.522 366.829 141.255 367.613 141.255 368.616C141.255 369.619 141.522 370.408 142.055 370.984C142.599 371.549 143.319 371.832 144.215 371.832C144.791 371.832 145.303 371.699 145.751 371.432C146.21 371.165 146.567 370.792 146.823 370.312C147.079 369.821 147.207 369.256 147.207 368.616C147.207 367.976 147.079 367.411 146.823 366.92C146.567 366.429 146.21 366.056 145.751 365.8C145.303 365.533 144.791 365.4 144.215 365.4ZM155.605 364.072C156.629 364.072 157.455 364.403 158.085 365.064C158.714 365.715 159.029 366.659 159.029 367.896V373H157.573V368.024C157.573 367.149 157.349 366.477 156.901 366.008C156.453 365.539 155.845 365.304 155.077 365.304C154.277 365.304 153.637 365.565 153.157 366.088C152.677 366.6 152.437 367.352 152.437 368.344V373H150.981V364.216H152.437V366.296C152.661 365.581 153.055 365.032 153.621 364.648C154.197 364.264 154.858 364.072 155.605 364.072ZM161.87 364.216L164.718 371.128L167.358 364.216H168.974L163.758 377.16H162.11L163.934 372.856L160.238 364.216H161.87ZM177.67 371.448L180.39 364.216H181.958L178.518 373H176.79L173.35 364.216H174.918L177.67 371.448ZM186.987 364.104C187.84 364.104 188.56 364.317 189.147 364.744C189.744 365.171 190.16 365.741 190.395 366.456V364.216H191.851V373H190.395V370.76C190.16 371.475 189.744 372.045 189.147 372.472C188.56 372.899 187.84 373.112 186.987 373.112C186.208 373.112 185.515 372.931 184.907 372.568C184.299 372.205 183.819 371.688 183.467 371.016C183.125 370.333 182.955 369.533 182.955 368.616C182.955 367.699 183.125 366.899 183.467 366.216C183.819 365.533 184.299 365.011 184.907 364.648C185.515 364.285 186.208 364.104 186.987 364.104ZM187.403 365.4C186.507 365.4 185.787 365.688 185.243 366.264C184.709 366.829 184.443 367.613 184.443 368.616C184.443 369.619 184.709 370.408 185.243 370.984C185.787 371.549 186.507 371.832 187.403 371.832C187.979 371.832 188.491 371.699 188.939 371.432C189.397 371.165 189.755 370.792 190.011 370.312C190.267 369.821 190.395 369.256 190.395 368.616C190.395 367.976 190.267 367.411 190.011 366.92C189.755 366.429 189.397 366.056 188.939 365.8C188.491 365.533 187.979 365.4 187.403 365.4ZM195.624 365.992C195.912 365.384 196.333 364.915 196.888 364.584C197.443 364.243 198.104 364.072 198.872 364.072V365.656H198.424C197.603 365.656 196.931 365.869 196.408 366.296C195.885 366.712 195.624 367.405 195.624 368.376V373H194.168V364.216H195.624V365.992ZM200.053 361.64C200.053 361.373 200.143 361.16 200.325 361C200.506 360.829 200.746 360.744 201.045 360.744C201.343 360.744 201.583 360.829 201.765 361C201.946 361.16 202.037 361.373 202.037 361.64C202.037 361.907 201.946 362.125 201.765 362.296C201.583 362.456 201.343 362.536 201.045 362.536C200.746 362.536 200.506 362.456 200.325 362.296C200.143 362.125 200.053 361.907 200.053 361.64ZM201.765 364.216V373H200.309V364.216H201.765ZM207.706 364.104C208.559 364.104 209.279 364.317 209.866 364.744C210.463 365.171 210.879 365.741 211.114 366.456V364.216H212.57V373H211.114V370.76C210.879 371.475 210.463 372.045 209.866 372.472C209.279 372.899 208.559 373.112 207.706 373.112C206.927 373.112 206.234 372.931 205.626 372.568C205.018 372.205 204.538 371.688 204.186 371.016C203.844 370.333 203.674 369.533 203.674 368.616C203.674 367.699 203.844 366.899 204.186 366.216C204.538 365.533 205.018 365.011 205.626 364.648C206.234 364.285 206.927 364.104 207.706 364.104ZM208.122 365.4C207.226 365.4 206.506 365.688 205.962 366.264C205.428 366.829 205.162 367.613 205.162 368.616C205.162 369.619 205.428 370.408 205.962 370.984C206.506 371.549 207.226 371.832 208.122 371.832C208.698 371.832 209.21 371.699 209.658 371.432C210.116 371.165 210.474 370.792 210.73 370.312C210.986 369.821 211.114 369.256 211.114 368.616C211.114 367.976 210.986 367.411 210.73 366.92C210.474 366.429 210.116 366.056 209.658 365.8C209.21 365.533 208.698 365.4 208.122 365.4ZM219.079 371.72V373H217.991C217.095 373 216.423 372.787 215.975 372.36C215.537 371.933 215.319 371.219 215.319 370.216V365.48H214.007V364.216H215.319V362.024H216.791V364.216H219.063V365.48H216.791V370.248C216.791 370.813 216.892 371.203 217.095 371.416C217.308 371.619 217.671 371.72 218.183 371.72H219.079ZM220.6 361.64C220.6 361.373 220.69 361.16 220.872 361C221.053 360.829 221.293 360.744 221.592 360.744C221.89 360.744 222.13 360.829 222.312 361C222.493 361.16 222.584 361.373 222.584 361.64C222.584 361.907 222.493 362.125 222.312 362.296C222.13 362.456 221.89 362.536 221.592 362.536C221.293 362.536 221.053 362.456 220.872 362.296C220.69 362.125 220.6 361.907 220.6 361.64ZM222.312 364.216V373H220.856V364.216H222.312ZM228.636 364.104C229.479 364.104 230.231 364.285 230.892 364.648C231.564 365.011 232.087 365.533 232.46 366.216C232.844 366.899 233.036 367.699 233.036 368.616C233.036 369.533 232.844 370.333 232.46 371.016C232.087 371.688 231.564 372.205 230.892 372.568C230.231 372.931 229.479 373.112 228.636 373.112C227.794 373.112 227.036 372.931 226.364 372.568C225.703 372.205 225.18 371.688 224.796 371.016C224.412 370.333 224.22 369.533 224.22 368.616C224.22 367.699 224.412 366.899 224.796 366.216C225.18 365.533 225.703 365.011 226.364 364.648C227.036 364.285 227.794 364.104 228.636 364.104ZM228.636 365.384C228.114 365.384 227.628 365.501 227.18 365.736C226.743 365.971 226.386 366.333 226.108 366.824C225.842 367.304 225.708 367.901 225.708 368.616C225.708 369.32 225.842 369.917 226.108 370.408C226.386 370.888 226.743 371.245 227.18 371.48C227.628 371.715 228.114 371.832 228.636 371.832C229.159 371.832 229.639 371.715 230.076 371.48C230.524 371.245 230.882 370.888 231.148 370.408C231.426 369.917 231.564 369.32 231.564 368.616C231.564 367.901 231.426 367.304 231.148 366.824C230.882 366.333 230.524 365.971 230.076 365.736C229.639 365.501 229.159 365.384 228.636 365.384ZM239.558 364.072C240.582 364.072 241.408 364.403 242.038 365.064C242.667 365.715 242.982 366.659 242.982 367.896V373H241.526V368.024C241.526 367.149 241.302 366.477 240.854 366.008C240.406 365.539 239.798 365.304 239.03 365.304C238.23 365.304 237.59 365.565 237.11 366.088C236.63 366.6 236.39 367.352 236.39 368.344V373H234.934V364.216H236.39V366.296C236.614 365.581 237.008 365.032 237.574 364.648C238.15 364.264 238.811 364.072 239.558 364.072ZM247.967 364.104C248.959 364.104 249.754 364.365 250.351 364.888C250.959 365.4 251.327 366.093 251.455 366.968H250.063C249.999 366.445 249.78 366.019 249.407 365.688C249.044 365.347 248.554 365.176 247.935 365.176C247.412 365.176 247.002 365.304 246.703 365.56C246.415 365.805 246.271 366.141 246.271 366.568C246.271 366.888 246.367 367.149 246.559 367.352C246.762 367.544 247.007 367.693 247.295 367.8C247.594 367.896 247.999 368.003 248.511 368.12C249.162 368.269 249.684 368.424 250.079 368.584C250.484 368.733 250.826 368.979 251.103 369.32C251.391 369.661 251.535 370.12 251.535 370.696C251.535 371.411 251.263 371.992 250.719 372.44C250.186 372.888 249.471 373.112 248.575 373.112C247.53 373.112 246.676 372.861 246.015 372.36C245.354 371.859 244.964 371.16 244.847 370.264H246.255C246.308 370.797 246.538 371.229 246.943 371.56C247.359 371.891 247.903 372.056 248.575 372.056C249.076 372.056 249.466 371.928 249.743 371.672C250.031 371.416 250.175 371.08 250.175 370.664C250.175 370.323 250.074 370.051 249.871 369.848C249.668 369.645 249.418 369.491 249.119 369.384C248.82 369.277 248.41 369.165 247.887 369.048C247.236 368.899 246.714 368.749 246.319 368.6C245.935 368.451 245.604 368.216 245.327 367.896C245.06 367.565 244.927 367.123 244.927 366.568C244.927 365.832 245.199 365.24 245.743 364.792C246.287 364.333 247.028 364.104 247.967 364.104ZM261.418 364.104C262.26 364.104 263.012 364.285 263.674 364.648C264.346 365.011 264.868 365.533 265.242 366.216C265.626 366.899 265.818 367.699 265.818 368.616C265.818 369.533 265.626 370.333 265.242 371.016C264.868 371.688 264.346 372.205 263.674 372.568C263.012 372.931 262.26 373.112 261.418 373.112C260.575 373.112 259.818 372.931 259.146 372.568C258.484 372.205 257.962 371.688 257.578 371.016C257.194 370.333 257.002 369.533 257.002 368.616C257.002 367.699 257.194 366.899 257.578 366.216C257.962 365.533 258.484 365.011 259.146 364.648C259.818 364.285 260.575 364.104 261.418 364.104ZM261.418 365.384C260.895 365.384 260.41 365.501 259.962 365.736C259.524 365.971 259.167 366.333 258.89 366.824C258.623 367.304 258.49 367.901 258.49 368.616C258.49 369.32 258.623 369.917 258.89 370.408C259.167 370.888 259.524 371.245 259.962 371.48C260.41 371.715 260.895 371.832 261.418 371.832C261.94 371.832 262.42 371.715 262.858 371.48C263.306 371.245 263.663 370.888 263.93 370.408C264.207 369.917 264.346 369.32 264.346 368.616C264.346 367.901 264.207 367.304 263.93 366.824C263.663 366.333 263.306 365.971 262.858 365.736C262.42 365.501 261.94 365.384 261.418 365.384ZM271.603 362.136C270.824 362.125 270.28 362.259 269.971 362.536C269.672 362.813 269.523 363.293 269.523 363.976V364.216H271.603V365.496H269.523V373H268.067V365.496H266.803V364.216H268.067V363.864C268.067 361.763 269.246 360.76 271.603 360.856V362.136ZM49.016 390.104C49.7947 390.104 50.488 390.285 51.096 390.648C51.704 391.011 52.1787 391.533 52.52 392.216C52.872 392.899 53.048 393.699 53.048 394.616C53.048 395.533 52.872 396.333 52.52 397.016C52.1787 397.688 51.704 398.205 51.096 398.568C50.488 398.931 49.7947 399.112 49.016 399.112C48.1627 399.112 47.4373 398.899 46.84 398.472C46.2533 398.035 45.848 397.464 45.624 396.76V403.16H44.168V390.216H45.624V392.456C45.848 391.752 46.2533 391.187 46.84 390.76C47.4373 390.323 48.1627 390.104 49.016 390.104ZM48.6 391.4C48.0347 391.4 47.5227 391.533 47.064 391.8C46.6053 392.056 46.248 392.429 45.992 392.92C45.736 393.411 45.608 393.976 45.608 394.616C45.608 395.256 45.736 395.821 45.992 396.312C46.248 396.792 46.6053 397.165 47.064 397.432C47.5227 397.699 48.0347 397.832 48.6 397.832C49.5067 397.832 50.2267 397.549 50.76 396.984C51.304 396.408 51.576 395.619 51.576 394.616C51.576 393.613 51.304 392.829 50.76 392.264C50.2267 391.688 49.5067 391.4 48.6 391.4ZM58.5493 390.104C59.4026 390.104 60.1226 390.317 60.7093 390.744C61.3066 391.171 61.7226 391.741 61.9573 392.456V390.216H63.4133V399H61.9573V396.76C61.7226 397.475 61.3066 398.045 60.7093 398.472C60.1226 398.899 59.4026 399.112 58.5493 399.112C57.7706 399.112 57.0773 398.931 56.4693 398.568C55.8613 398.205 55.3813 397.688 55.0293 397.016C54.6879 396.333 54.5173 395.533 54.5173 394.616C54.5173 393.699 54.6879 392.899 55.0293 392.216C55.3813 391.533 55.8613 391.011 56.4693 390.648C57.0773 390.285 57.7706 390.104 58.5493 390.104ZM58.9653 391.4C58.0693 391.4 57.3493 391.688 56.8053 392.264C56.2719 392.829 56.0053 393.613 56.0053 394.616C56.0053 395.619 56.2719 396.408 56.8053 396.984C57.3493 397.549 58.0693 397.832 58.9653 397.832C59.5413 397.832 60.0533 397.699 60.5013 397.432C60.9599 397.165 61.3173 396.792 61.5733 396.312C61.8293 395.821 61.9573 395.256 61.9573 394.616C61.9573 393.976 61.8293 393.411 61.5733 392.92C61.3173 392.429 60.9599 392.056 60.5013 391.8C60.0533 391.533 59.5413 391.4 58.9653 391.4ZM68.4825 390.104C69.4745 390.104 70.2692 390.365 70.8665 390.888C71.4745 391.4 71.8425 392.093 71.9705 392.968H70.5785C70.5145 392.445 70.2958 392.019 69.9225 391.688C69.5598 391.347 69.0692 391.176 68.4505 391.176C67.9278 391.176 67.5172 391.304 67.2185 391.56C66.9305 391.805 66.7865 392.141 66.7865 392.568C66.7865 392.888 66.8825 393.149 67.0745 393.352C67.2772 393.544 67.5225 393.693 67.8105 393.8C68.1092 393.896 68.5145 394.003 69.0265 394.12C69.6772 394.269 70.1998 394.424 70.5945 394.584C70.9998 394.733 71.3412 394.979 71.6185 395.32C71.9065 395.661 72.0505 396.12 72.0505 396.696C72.0505 397.411 71.7785 397.992 71.2345 398.44C70.7012 398.888 69.9865 399.112 69.0905 399.112C68.0452 399.112 67.1918 398.861 66.5305 398.36C65.8692 397.859 65.4798 397.16 65.3625 396.264H66.7705C66.8238 396.797 67.0532 397.229 67.4585 397.56C67.8745 397.891 68.4185 398.056 69.0905 398.056C69.5918 398.056 69.9812 397.928 70.2585 397.672C70.5465 397.416 70.6905 397.08 70.6905 396.664C70.6905 396.323 70.5892 396.051 70.3865 395.848C70.1838 395.645 69.9332 395.491 69.6345 395.384C69.3358 395.277 68.9252 395.165 68.4025 395.048C67.7518 394.899 67.2292 394.749 66.8345 394.6C66.4505 394.451 66.1198 394.216 65.8425 393.896C65.5758 393.565 65.4425 393.123 65.4425 392.568C65.4425 391.832 65.7145 391.24 66.2585 390.792C66.8025 390.333 67.5438 390.104 68.4825 390.104ZM76.7481 390.104C77.7401 390.104 78.5348 390.365 79.1321 390.888C79.7401 391.4 80.1081 392.093 80.2361 392.968H78.8441C78.7801 392.445 78.5615 392.019 78.1881 391.688C77.8255 391.347 77.3348 391.176 76.7161 391.176C76.1935 391.176 75.7828 391.304 75.4841 391.56C75.1961 391.805 75.0521 392.141 75.0521 392.568C75.0521 392.888 75.1481 393.149 75.3401 393.352C75.5428 393.544 75.7881 393.693 76.0761 393.8C76.3748 393.896 76.7801 394.003 77.2921 394.12C77.9428 394.269 78.4655 394.424 78.8601 394.584C79.2655 394.733 79.6068 394.979 79.8841 395.32C80.1721 395.661 80.3161 396.12 80.3161 396.696C80.3161 397.411 80.0441 397.992 79.5001 398.44C78.9668 398.888 78.2521 399.112 77.3561 399.112C76.3108 399.112 75.4575 398.861 74.7961 398.36C74.1348 397.859 73.7455 397.16 73.6281 396.264H75.0361C75.0895 396.797 75.3188 397.229 75.7241 397.56C76.1401 397.891 76.6841 398.056 77.3561 398.056C77.8575 398.056 78.2468 397.928 78.5241 397.672C78.8121 397.416 78.9561 397.08 78.9561 396.664C78.9561 396.323 78.8548 396.051 78.6521 395.848C78.4495 395.645 78.1988 395.491 77.9001 395.384C77.6015 395.277 77.1908 395.165 76.6681 395.048C76.0175 394.899 75.4948 394.749 75.1001 394.6C74.7161 394.451 74.3855 394.216 74.1081 393.896C73.8415 393.565 73.7081 393.123 73.7081 392.568C73.7081 391.832 73.9801 391.24 74.5241 390.792C75.0681 390.333 75.8095 390.104 76.7481 390.104ZM85.8618 390.104C86.7151 390.104 87.4351 390.317 88.0218 390.744C88.6191 391.171 89.0351 391.741 89.2698 392.456V390.216H90.7258V399H89.2698V396.76C89.0351 397.475 88.6191 398.045 88.0218 398.472C87.4351 398.899 86.7151 399.112 85.8618 399.112C85.0831 399.112 84.3898 398.931 83.7818 398.568C83.1738 398.205 82.6938 397.688 82.3418 397.016C82.0004 396.333 81.8298 395.533 81.8298 394.616C81.8298 393.699 82.0004 392.899 82.3418 392.216C82.6938 391.533 83.1738 391.011 83.7818 390.648C84.3898 390.285 85.0831 390.104 85.8618 390.104ZM86.2778 391.4C85.3818 391.4 84.6618 391.688 84.1178 392.264C83.5844 392.829 83.3178 393.613 83.3178 394.616C83.3178 395.619 83.5844 396.408 84.1178 396.984C84.6618 397.549 85.3818 397.832 86.2778 397.832C86.8538 397.832 87.3658 397.699 87.8138 397.432C88.2724 397.165 88.6298 396.792 88.8858 396.312C89.1418 395.821 89.2698 395.256 89.2698 394.616C89.2698 393.976 89.1418 393.411 88.8858 392.92C88.6298 392.429 88.2724 392.056 87.8138 391.8C87.3658 391.533 86.8538 391.4 86.2778 391.4ZM96.643 390.104C97.4963 390.104 98.2163 390.317 98.803 390.744C99.4003 391.171 99.8163 391.741 100.051 392.456V390.216H101.507V399.144C101.507 399.955 101.336 400.675 100.995 401.304C100.654 401.933 100.174 402.424 99.555 402.776C98.9363 403.128 98.2163 403.304 97.395 403.304C96.211 403.304 95.2457 403.016 94.499 402.44C93.7523 401.875 93.2777 401.107 93.075 400.136H94.515C94.6857 400.723 95.0057 401.181 95.475 401.512C95.955 401.853 96.5683 402.024 97.315 402.024C98.1043 402.024 98.755 401.768 99.267 401.256C99.7897 400.755 100.051 400.051 100.051 399.144V396.76C99.8163 397.475 99.4003 398.045 98.803 398.472C98.2163 398.899 97.4963 399.112 96.643 399.112C95.8643 399.112 95.171 398.931 94.563 398.568C93.955 398.205 93.475 397.688 93.123 397.016C92.7817 396.333 92.611 395.533 92.611 394.616C92.611 393.699 92.7817 392.899 93.123 392.216C93.475 391.533 93.955 391.011 94.563 390.648C95.171 390.285 95.8643 390.104 96.643 390.104ZM97.059 391.4C96.163 391.4 95.443 391.688 94.899 392.264C94.3657 392.829 94.099 393.613 94.099 394.616C94.099 395.619 94.3657 396.408 94.899 396.984C95.443 397.549 96.163 397.832 97.059 397.832C97.635 397.832 98.147 397.699 98.595 397.432C99.0537 397.165 99.411 396.792 99.667 396.312C99.923 395.821 100.051 395.256 100.051 394.616C100.051 393.976 99.923 393.411 99.667 392.92C99.411 392.429 99.0537 392.056 98.595 391.8C98.147 391.533 97.635 391.4 97.059 391.4ZM111.904 394.12C111.904 394.429 111.883 394.696 111.84 394.92H104.816C104.848 395.923 105.131 396.675 105.664 397.176C106.208 397.677 106.87 397.928 107.648 397.928C108.352 397.928 108.939 397.752 109.408 397.4C109.888 397.037 110.182 396.557 110.288 395.96H111.84C111.734 396.568 111.494 397.112 111.12 397.592C110.758 398.072 110.283 398.445 109.696 398.712C109.11 398.979 108.448 399.112 107.712 399.112C106.87 399.112 106.123 398.931 105.472 398.568C104.822 398.205 104.31 397.688 103.936 397.016C103.574 396.333 103.392 395.533 103.392 394.616C103.392 393.699 103.574 392.899 103.936 392.216C104.31 391.533 104.822 391.011 105.472 390.648C106.123 390.285 106.87 390.104 107.712 390.104C108.566 390.104 109.307 390.285 109.936 390.648C110.576 391.011 111.062 391.496 111.392 392.104C111.734 392.712 111.904 393.384 111.904 394.12ZM110.432 394.216C110.464 393.565 110.358 393.021 110.112 392.584C109.867 392.147 109.531 391.821 109.104 391.608C108.678 391.395 108.214 391.288 107.712 391.288C106.912 391.288 106.24 391.539 105.696 392.04C105.152 392.531 104.859 393.256 104.816 394.216H110.432ZM116.561 390.104C117.553 390.104 118.347 390.365 118.945 390.888C119.553 391.4 119.921 392.093 120.049 392.968H118.657C118.593 392.445 118.374 392.019 118.001 391.688C117.638 391.347 117.147 391.176 116.529 391.176C116.006 391.176 115.595 391.304 115.297 391.56C115.009 391.805 114.865 392.141 114.865 392.568C114.865 392.888 114.961 393.149 115.153 393.352C115.355 393.544 115.601 393.693 115.889 393.8C116.187 393.896 116.593 394.003 117.105 394.12C117.755 394.269 118.278 394.424 118.673 394.584C119.078 394.733 119.419 394.979 119.697 395.32C119.985 395.661 120.129 396.12 120.129 396.696C120.129 397.411 119.857 397.992 119.313 398.44C118.779 398.888 118.065 399.112 117.169 399.112C116.123 399.112 115.27 398.861 114.609 398.36C113.947 397.859 113.558 397.16 113.441 396.264H114.849C114.902 396.797 115.131 397.229 115.537 397.56C115.953 397.891 116.497 398.056 117.169 398.056C117.67 398.056 118.059 397.928 118.337 397.672C118.625 397.416 118.769 397.08 118.769 396.664C118.769 396.323 118.667 396.051 118.465 395.848C118.262 395.645 118.011 395.491 117.713 395.384C117.414 395.277 117.003 395.165 116.481 395.048C115.83 394.899 115.307 394.749 114.913 394.6C114.529 394.451 114.198 394.216 113.921 393.896C113.654 393.565 113.521 393.123 113.521 392.568C113.521 391.832 113.793 391.24 114.337 390.792C114.881 390.333 115.622 390.104 116.561 390.104ZM130.011 390.104C130.854 390.104 131.606 390.285 132.267 390.648C132.939 391.011 133.462 391.533 133.835 392.216C134.219 392.899 134.411 393.699 134.411 394.616C134.411 395.533 134.219 396.333 133.835 397.016C133.462 397.688 132.939 398.205 132.267 398.568C131.606 398.931 130.854 399.112 130.011 399.112C129.169 399.112 128.411 398.931 127.739 398.568C127.078 398.205 126.555 397.688 126.171 397.016C125.787 396.333 125.595 395.533 125.595 394.616C125.595 393.699 125.787 392.899 126.171 392.216C126.555 391.533 127.078 391.011 127.739 390.648C128.411 390.285 129.169 390.104 130.011 390.104ZM130.011 391.384C129.489 391.384 129.003 391.501 128.555 391.736C128.118 391.971 127.761 392.333 127.483 392.824C127.217 393.304 127.083 393.901 127.083 394.616C127.083 395.32 127.217 395.917 127.483 396.408C127.761 396.888 128.118 397.245 128.555 397.48C129.003 397.715 129.489 397.832 130.011 397.832C130.534 397.832 131.014 397.715 131.451 397.48C131.899 397.245 132.257 396.888 132.523 396.408C132.801 395.917 132.939 395.32 132.939 394.616C132.939 393.901 132.801 393.304 132.523 392.824C132.257 392.333 131.899 391.971 131.451 391.736C131.014 391.501 130.534 391.384 130.011 391.384ZM140.197 388.136C139.418 388.125 138.874 388.259 138.565 388.536C138.266 388.813 138.117 389.293 138.117 389.976V390.216H140.197V391.496H138.117V399H136.661V391.496H135.397V390.216H136.661V389.864C136.661 387.763 137.839 386.76 140.197 386.856V388.136ZM147.187 397.864H151.187V399H145.731V387.72H147.187V397.864ZM156.652 390.104C157.495 390.104 158.247 390.285 158.908 390.648C159.58 391.011 160.103 391.533 160.476 392.216C160.86 392.899 161.052 393.699 161.052 394.616C161.052 395.533 160.86 396.333 160.476 397.016C160.103 397.688 159.58 398.205 158.908 398.568C158.247 398.931 157.495 399.112 156.652 399.112C155.809 399.112 155.052 398.931 154.38 398.568C153.719 398.205 153.196 397.688 152.812 397.016C152.428 396.333 152.236 395.533 152.236 394.616C152.236 393.699 152.428 392.899 152.812 392.216C153.196 391.533 153.719 391.011 154.38 390.648C155.052 390.285 155.809 390.104 156.652 390.104ZM156.652 391.384C156.129 391.384 155.644 391.501 155.196 391.736C154.759 391.971 154.401 392.333 154.124 392.824C153.857 393.304 153.724 393.901 153.724 394.616C153.724 395.32 153.857 395.917 154.124 396.408C154.401 396.888 154.759 397.245 155.196 397.48C155.644 397.715 156.129 397.832 156.652 397.832C157.175 397.832 157.655 397.715 158.092 397.48C158.54 397.245 158.897 396.888 159.164 396.408C159.441 395.917 159.58 395.32 159.58 394.616C159.58 393.901 159.441 393.304 159.164 392.824C158.897 392.333 158.54 391.971 158.092 391.736C157.655 391.501 157.175 391.384 156.652 391.384ZM164.405 391.992C164.693 391.384 165.115 390.915 165.669 390.584C166.224 390.243 166.885 390.072 167.653 390.072V391.656H167.205C166.384 391.656 165.712 391.869 165.189 392.296C164.667 392.712 164.405 393.405 164.405 394.376V399H162.949V390.216H164.405V391.992ZM177.17 394.12C177.17 394.429 177.149 394.696 177.106 394.92H170.082C170.114 395.923 170.397 396.675 170.93 397.176C171.474 397.677 172.135 397.928 172.914 397.928C173.618 397.928 174.205 397.752 174.674 397.4C175.154 397.037 175.447 396.557 175.554 395.96H177.106C176.999 396.568 176.759 397.112 176.386 397.592C176.023 398.072 175.549 398.445 174.962 398.712C174.375 398.979 173.714 399.112 172.978 399.112C172.135 399.112 171.389 398.931 170.738 398.568C170.087 398.205 169.575 397.688 169.202 397.016C168.839 396.333 168.658 395.533 168.658 394.616C168.658 393.699 168.839 392.899 169.202 392.216C169.575 391.533 170.087 391.011 170.738 390.648C171.389 390.285 172.135 390.104 172.978 390.104C173.831 390.104 174.573 390.285 175.202 390.648C175.842 391.011 176.327 391.496 176.658 392.104C176.999 392.712 177.17 393.384 177.17 394.12ZM175.698 394.216C175.73 393.565 175.623 393.021 175.378 392.584C175.133 392.147 174.797 391.821 174.37 391.608C173.943 391.395 173.479 391.288 172.978 391.288C172.178 391.288 171.506 391.539 170.962 392.04C170.418 392.531 170.125 393.256 170.082 394.216H175.698ZM189.874 390.072C190.898 390.072 191.72 390.403 192.338 391.064C192.968 391.715 193.282 392.659 193.282 393.896V399H191.826V394.024C191.826 393.16 191.613 392.499 191.186 392.04C190.77 391.581 190.194 391.352 189.458 391.352C188.69 391.352 188.072 391.608 187.602 392.12C187.144 392.621 186.914 393.363 186.914 394.344V399H185.458V394.024C185.458 393.16 185.245 392.499 184.818 392.04C184.392 391.581 183.816 391.352 183.09 391.352C182.312 391.352 181.688 391.608 181.218 392.12C180.76 392.621 180.53 393.363 180.53 394.344V399H179.074V390.216H180.53V392.216C180.744 391.523 181.122 390.995 181.666 390.632C182.221 390.259 182.856 390.072 183.57 390.072C184.317 390.072 184.962 390.264 185.506 390.648C186.061 391.021 186.456 391.576 186.69 392.312C186.936 391.597 187.346 391.048 187.922 390.664C188.498 390.269 189.149 390.072 189.874 390.072ZM200.952 387.72V399H199.496V387.72H200.952ZM208.141 390.104C208.92 390.104 209.613 390.285 210.221 390.648C210.829 391.011 211.304 391.533 211.645 392.216C211.997 392.899 212.173 393.699 212.173 394.616C212.173 395.533 211.997 396.333 211.645 397.016C211.304 397.688 210.829 398.205 210.221 398.568C209.613 398.931 208.92 399.112 208.141 399.112C207.288 399.112 206.562 398.899 205.965 398.472C205.378 398.035 204.973 397.464 204.749 396.76V403.16H203.293V390.216H204.749V392.456C204.973 391.752 205.378 391.187 205.965 390.76C206.562 390.323 207.288 390.104 208.141 390.104ZM207.725 391.4C207.16 391.4 206.648 391.533 206.189 391.8C205.73 392.056 205.373 392.429 205.117 392.92C204.861 393.411 204.733 393.976 204.733 394.616C204.733 395.256 204.861 395.821 205.117 396.312C205.373 396.792 205.73 397.165 206.189 397.432C206.648 397.699 207.16 397.832 207.725 397.832C208.632 397.832 209.352 397.549 209.885 396.984C210.429 396.408 210.701 395.619 210.701 394.616C210.701 393.613 210.429 392.829 209.885 392.264C209.352 391.688 208.632 391.4 207.725 391.4ZM216.826 390.104C217.818 390.104 218.613 390.365 219.21 390.888C219.818 391.4 220.186 392.093 220.314 392.968H218.922C218.858 392.445 218.64 392.019 218.266 391.688C217.904 391.347 217.413 391.176 216.794 391.176C216.272 391.176 215.861 391.304 215.562 391.56C215.274 391.805 215.13 392.141 215.13 392.568C215.13 392.888 215.226 393.149 215.418 393.352C215.621 393.544 215.866 393.693 216.154 393.8C216.453 393.896 216.858 394.003 217.37 394.12C218.021 394.269 218.544 394.424 218.938 394.584C219.344 394.733 219.685 394.979 219.962 395.32C220.25 395.661 220.394 396.12 220.394 396.696C220.394 397.411 220.122 397.992 219.578 398.44C219.045 398.888 218.33 399.112 217.434 399.112C216.389 399.112 215.536 398.861 214.874 398.36C214.213 397.859 213.824 397.16 213.706 396.264H215.114C215.168 396.797 215.397 397.229 215.802 397.56C216.218 397.891 216.762 398.056 217.434 398.056C217.936 398.056 218.325 397.928 218.602 397.672C218.89 397.416 219.034 397.08 219.034 396.664C219.034 396.323 218.933 396.051 218.73 395.848C218.528 395.645 218.277 395.491 217.978 395.384C217.68 395.277 217.269 395.165 216.746 395.048C216.096 394.899 215.573 394.749 215.178 394.6C214.794 394.451 214.464 394.216 214.186 393.896C213.92 393.565 213.786 393.123 213.786 392.568C213.786 391.832 214.058 391.24 214.602 390.792C215.146 390.333 215.888 390.104 216.826 390.104ZM230.148 390.216V399H228.692V396.936C228.468 397.651 228.068 398.2 227.492 398.584C226.927 398.957 226.265 399.144 225.508 399.144C224.495 399.144 223.673 398.819 223.044 398.168C222.415 397.507 222.1 396.563 222.1 395.336V390.216H223.556V395.192C223.556 396.067 223.78 396.744 224.228 397.224C224.676 397.693 225.284 397.928 226.052 397.928C226.852 397.928 227.492 397.672 227.972 397.16C228.452 396.637 228.692 395.88 228.692 394.888V390.216H230.148ZM243.281 390.072C244.305 390.072 245.126 390.403 245.745 391.064C246.374 391.715 246.689 392.659 246.689 393.896V399H245.233V394.024C245.233 393.16 245.019 392.499 244.593 392.04C244.177 391.581 243.601 391.352 242.865 391.352C242.097 391.352 241.478 391.608 241.009 392.12C240.55 392.621 240.321 393.363 240.321 394.344V399H238.865V394.024C238.865 393.16 238.651 392.499 238.225 392.04C237.798 391.581 237.222 391.352 236.497 391.352C235.718 391.352 235.094 391.608 234.625 392.12C234.166 392.621 233.937 393.363 233.937 394.344V399H232.481V390.216H233.937V392.216C234.15 391.523 234.529 390.995 235.073 390.632C235.627 390.259 236.262 390.072 236.977 390.072C237.723 390.072 238.369 390.264 238.913 390.648C239.467 391.021 239.862 391.576 240.097 392.312C240.342 391.597 240.753 391.048 241.329 390.664C241.905 390.269 242.555 390.072 243.281 390.072ZM256.502 390.104C257.356 390.104 258.076 390.317 258.662 390.744C259.26 391.171 259.676 391.741 259.91 392.456V390.216H261.366V399H259.91V396.76C259.676 397.475 259.26 398.045 258.662 398.472C258.076 398.899 257.356 399.112 256.502 399.112C255.724 399.112 255.03 398.931 254.422 398.568C253.814 398.205 253.334 397.688 252.982 397.016C252.641 396.333 252.47 395.533 252.47 394.616C252.47 393.699 252.641 392.899 252.982 392.216C253.334 391.533 253.814 391.011 254.422 390.648C255.03 390.285 255.724 390.104 256.502 390.104ZM256.918 391.4C256.022 391.4 255.302 391.688 254.758 392.264C254.225 392.829 253.958 393.613 253.958 394.616C253.958 395.619 254.225 396.408 254.758 396.984C255.302 397.549 256.022 397.832 256.918 397.832C257.494 397.832 258.006 397.699 258.454 397.432C258.913 397.165 259.27 396.792 259.526 396.312C259.782 395.821 259.91 395.256 259.91 394.616C259.91 393.976 259.782 393.411 259.526 392.92C259.27 392.429 258.913 392.056 258.454 391.8C258.006 391.533 257.494 391.4 256.918 391.4ZM267.092 397.448L269.812 390.216H271.38L267.94 399H266.212L262.772 390.216H264.34L267.092 397.448ZM276.409 390.104C277.262 390.104 277.982 390.317 278.569 390.744C279.166 391.171 279.582 391.741 279.817 392.456V390.216H281.273V399H279.817V396.76C279.582 397.475 279.166 398.045 278.569 398.472C277.982 398.899 277.262 399.112 276.409 399.112C275.63 399.112 274.937 398.931 274.329 398.568C273.721 398.205 273.241 397.688 272.889 397.016C272.547 396.333 272.377 395.533 272.377 394.616C272.377 393.699 272.547 392.899 272.889 392.216C273.241 391.533 273.721 391.011 274.329 390.648C274.937 390.285 275.63 390.104 276.409 390.104ZM276.825 391.4C275.929 391.4 275.209 391.688 274.665 392.264C274.131 392.829 273.865 393.613 273.865 394.616C273.865 395.619 274.131 396.408 274.665 396.984C275.209 397.549 275.929 397.832 276.825 397.832C277.401 397.832 277.913 397.699 278.361 397.432C278.819 397.165 279.177 396.792 279.433 396.312C279.689 395.821 279.817 395.256 279.817 394.616C279.817 393.976 279.689 393.411 279.433 392.92C279.177 392.429 278.819 392.056 278.361 391.8C277.913 391.533 277.401 391.4 276.825 391.4ZM283.334 387.64C283.334 387.373 283.425 387.16 283.606 387C283.787 386.829 284.027 386.744 284.326 386.744C284.625 386.744 284.865 386.829 285.046 387C285.227 387.16 285.318 387.373 285.318 387.64C285.318 387.907 285.227 388.125 285.046 388.296C284.865 388.456 284.625 388.536 284.326 388.536C284.027 388.536 283.787 388.456 283.606 388.296C283.425 388.125 283.334 387.907 283.334 387.64ZM285.046 390.216V399H283.59V390.216H285.046ZM288.843 387.16V399H287.387V387.16H288.843ZM294.784 390.104C295.637 390.104 296.357 390.317 296.944 390.744C297.541 391.171 297.957 391.741 298.192 392.456V390.216H299.648V399H298.192V396.76C297.957 397.475 297.541 398.045 296.944 398.472C296.357 398.899 295.637 399.112 294.784 399.112C294.005 399.112 293.312 398.931 292.704 398.568C292.096 398.205 291.616 397.688 291.264 397.016C290.922 396.333 290.752 395.533 290.752 394.616C290.752 393.699 290.922 392.899 291.264 392.216C291.616 391.533 292.096 391.011 292.704 390.648C293.312 390.285 294.005 390.104 294.784 390.104ZM295.2 391.4C294.304 391.4 293.584 391.688 293.04 392.264C292.506 392.829 292.24 393.613 292.24 394.616C292.24 395.619 292.506 396.408 293.04 396.984C293.584 397.549 294.304 397.832 295.2 397.832C295.776 397.832 296.288 397.699 296.736 397.432C297.194 397.165 297.552 396.792 297.808 396.312C298.064 395.821 298.192 395.256 298.192 394.616C298.192 393.976 298.064 393.411 297.808 392.92C297.552 392.429 297.194 392.056 296.736 391.8C296.288 391.533 295.776 391.4 295.2 391.4ZM306.813 390.104C307.592 390.104 308.285 390.285 308.893 390.648C309.501 391.011 309.976 391.533 310.317 392.216C310.669 392.899 310.845 393.699 310.845 394.616C310.845 395.533 310.669 396.333 310.317 397.016C309.976 397.688 309.501 398.205 308.893 398.568C308.285 398.931 307.592 399.112 306.813 399.112C305.96 399.112 305.234 398.899 304.637 398.472C304.05 398.035 303.645 397.464 303.421 396.76V399H301.965V387.16H303.421V392.456C303.645 391.752 304.05 391.187 304.637 390.76C305.234 390.323 305.96 390.104 306.813 390.104ZM306.397 391.4C305.832 391.4 305.32 391.533 304.861 391.8C304.402 392.056 304.045 392.429 303.789 392.92C303.533 393.411 303.405 393.976 303.405 394.616C303.405 395.256 303.533 395.821 303.789 396.312C304.045 396.792 304.402 397.165 304.861 397.432C305.32 397.699 305.832 397.832 306.397 397.832C307.304 397.832 308.024 397.549 308.557 396.984C309.101 396.408 309.373 395.619 309.373 394.616C309.373 393.613 309.101 392.829 308.557 392.264C308.024 391.688 307.304 391.4 306.397 391.4ZM314.202 387.16V399H312.746V387.16H314.202ZM324.623 394.12C324.623 394.429 324.602 394.696 324.559 394.92H317.535C317.567 395.923 317.85 396.675 318.383 397.176C318.927 397.677 319.588 397.928 320.367 397.928C321.071 397.928 321.658 397.752 322.127 397.4C322.607 397.037 322.9 396.557 323.007 395.96H324.559C324.452 396.568 324.212 397.112 323.839 397.592C323.476 398.072 323.002 398.445 322.415 398.712C321.828 398.979 321.167 399.112 320.431 399.112C319.588 399.112 318.842 398.931 318.191 398.568C317.54 398.205 317.028 397.688 316.655 397.016C316.292 396.333 316.111 395.533 316.111 394.616C316.111 393.699 316.292 392.899 316.655 392.216C317.028 391.533 317.54 391.011 318.191 390.648C318.842 390.285 319.588 390.104 320.431 390.104C321.284 390.104 322.026 390.285 322.655 390.648C323.295 391.011 323.78 391.496 324.111 392.104C324.452 392.712 324.623 393.384 324.623 394.12ZM323.151 394.216C323.183 393.565 323.076 393.021 322.831 392.584C322.586 392.147 322.25 391.821 321.823 391.608C321.396 391.395 320.932 391.288 320.431 391.288C319.631 391.288 318.959 391.539 318.415 392.04C317.871 392.531 317.578 393.256 317.535 394.216H323.151ZM327.375 397.928C327.525 398.397 327.599 398.835 327.599 399.24C327.599 399.795 327.461 400.237 327.183 400.568C326.906 400.909 326.49 401.08 325.935 401.08V400.456C326.202 400.456 326.394 400.381 326.511 400.232C326.639 400.093 326.703 399.869 326.703 399.56V399.416H325.887V397.928H327.375ZM49.016 416.104C49.7947 416.104 50.488 416.285 51.096 416.648C51.704 417.011 52.1787 417.533 52.52 418.216C52.872 418.899 53.048 419.699 53.048 420.616C53.048 421.533 52.872 422.333 52.52 423.016C52.1787 423.688 51.704 424.205 51.096 424.568C50.488 424.931 49.7947 425.112 49.016 425.112C48.1627 425.112 47.4373 424.899 46.84 424.472C46.2533 424.035 45.848 423.464 45.624 422.76V425H44.168V413.16H45.624V418.456C45.848 417.752 46.2533 417.187 46.84 416.76C47.4373 416.323 48.1627 416.104 49.016 416.104ZM48.6 417.4C48.0347 417.4 47.5227 417.533 47.064 417.8C46.6053 418.056 46.248 418.429 45.992 418.92C45.736 419.411 45.608 419.976 45.608 420.616C45.608 421.256 45.736 421.821 45.992 422.312C46.248 422.792 46.6053 423.165 47.064 423.432C47.5227 423.699 48.0347 423.832 48.6 423.832C49.5067 423.832 50.2267 423.549 50.76 422.984C51.304 422.408 51.576 421.619 51.576 420.616C51.576 419.613 51.304 418.829 50.76 418.264C50.2267 417.688 49.5067 417.4 48.6 417.4ZM62.7573 416.216V425H61.3013V422.936C61.0773 423.651 60.6773 424.2 60.1013 424.584C59.5359 424.957 58.8746 425.144 58.1173 425.144C57.1039 425.144 56.2826 424.819 55.6533 424.168C55.0239 423.507 54.7093 422.563 54.7093 421.336V416.216H56.1653V421.192C56.1653 422.067 56.3893 422.744 56.8373 423.224C57.2853 423.693 57.8933 423.928 58.6613 423.928C59.4613 423.928 60.1013 423.672 60.5813 423.16C61.0613 422.637 61.3013 421.88 61.3013 420.888V416.216H62.7573ZM69.2819 423.72V425H68.1939C67.2979 425 66.6259 424.787 66.1779 424.36C65.7405 423.933 65.5219 423.219 65.5219 422.216V417.48H64.2099V416.216H65.5219V414.024H66.9939V416.216H69.2659V417.48H66.9939V422.248C66.9939 422.813 67.0952 423.203 67.2979 423.416C67.5112 423.619 67.8739 423.72 68.3859 423.72H69.2819ZM79.2038 423.72V425H78.1158C77.2198 425 76.5478 424.787 76.0998 424.36C75.6624 423.933 75.4438 423.219 75.4438 422.216V417.48H74.1318V416.216H75.4438V414.024H76.9158V416.216H79.1878V417.48H76.9158V422.248C76.9158 422.813 77.0171 423.203 77.2198 423.416C77.4331 423.619 77.7958 423.72 78.3078 423.72H79.2038ZM85.6045 416.072C86.6285 416.072 87.4552 416.403 88.0845 417.064C88.7138 417.715 89.0285 418.659 89.0285 419.896V425H87.5725V420.024C87.5725 419.149 87.3485 418.477 86.9005 418.008C86.4525 417.539 85.8445 417.304 85.0765 417.304C84.2765 417.304 83.6365 417.565 83.1565 418.088C82.6765 418.6 82.4365 419.352 82.4365 420.344V425H80.9805V413.16H82.4365V418.296C82.6605 417.581 83.0552 417.032 83.6205 416.648C84.1965 416.264 84.8578 416.072 85.6045 416.072ZM99.3418 420.12C99.3418 420.429 99.3204 420.696 99.2778 420.92H92.2538C92.2858 421.923 92.5684 422.675 93.1018 423.176C93.6458 423.677 94.3071 423.928 95.0858 423.928C95.7898 423.928 96.3764 423.752 96.8458 423.4C97.3258 423.037 97.6191 422.557 97.7258 421.96H99.2778C99.1711 422.568 98.9311 423.112 98.5578 423.592C98.1951 424.072 97.7204 424.445 97.1338 424.712C96.5471 424.979 95.8858 425.112 95.1498 425.112C94.3071 425.112 93.5604 424.931 92.9098 424.568C92.2591 424.205 91.7471 423.688 91.3738 423.016C91.0111 422.333 90.8298 421.533 90.8298 420.616C90.8298 419.699 91.0111 418.899 91.3738 418.216C91.7471 417.533 92.2591 417.011 92.9098 416.648C93.5604 416.285 94.3071 416.104 95.1498 416.104C96.0031 416.104 96.7444 416.285 97.3738 416.648C98.0138 417.011 98.4991 417.496 98.8298 418.104C99.1711 418.712 99.3418 419.384 99.3418 420.12ZM97.8698 420.216C97.9018 419.565 97.7951 419.021 97.5498 418.584C97.3044 418.147 96.9684 417.821 96.5418 417.608C96.1151 417.395 95.6511 417.288 95.1498 417.288C94.3498 417.288 93.6778 417.539 93.1338 418.04C92.5898 418.531 92.2964 419.256 92.2538 420.216H97.8698ZM115.999 416.072C117.023 416.072 117.845 416.403 118.463 417.064C119.093 417.715 119.407 418.659 119.407 419.896V425H117.951V420.024C117.951 419.16 117.738 418.499 117.311 418.04C116.895 417.581 116.319 417.352 115.583 417.352C114.815 417.352 114.197 417.608 113.727 418.12C113.269 418.621 113.039 419.363 113.039 420.344V425H111.583V420.024C111.583 419.16 111.37 418.499 110.943 418.04C110.517 417.581 109.941 417.352 109.215 417.352C108.437 417.352 107.813 417.608 107.343 418.12C106.885 418.621 106.655 419.363 106.655 420.344V425H105.199V416.216H106.655V418.216C106.869 417.523 107.247 416.995 107.791 416.632C108.346 416.259 108.981 416.072 109.695 416.072C110.442 416.072 111.087 416.264 111.631 416.648C112.186 417.021 112.581 417.576 112.815 418.312C113.061 417.597 113.471 417.048 114.047 416.664C114.623 416.269 115.274 416.072 115.999 416.072ZM125.268 416.104C126.121 416.104 126.841 416.317 127.428 416.744C128.025 417.171 128.441 417.741 128.676 418.456V416.216H130.132V425H128.676V422.76C128.441 423.475 128.025 424.045 127.428 424.472C126.841 424.899 126.121 425.112 125.268 425.112C124.489 425.112 123.796 424.931 123.188 424.568C122.58 424.205 122.1 423.688 121.748 423.016C121.407 422.333 121.236 421.533 121.236 420.616C121.236 419.699 121.407 418.899 121.748 418.216C122.1 417.533 122.58 417.011 123.188 416.648C123.796 416.285 124.489 416.104 125.268 416.104ZM125.684 417.4C124.788 417.4 124.068 417.688 123.524 418.264C122.991 418.829 122.724 419.613 122.724 420.616C122.724 421.619 122.991 422.408 123.524 422.984C124.068 423.549 124.788 423.832 125.684 423.832C126.26 423.832 126.772 423.699 127.22 423.432C127.679 423.165 128.036 422.792 128.292 422.312C128.548 421.821 128.676 421.256 128.676 420.616C128.676 419.976 128.548 419.411 128.292 418.92C128.036 418.429 127.679 418.056 127.22 417.8C126.772 417.533 126.26 417.4 125.684 417.4ZM133.281 414.536C132.983 414.536 132.737 414.456 132.545 414.296C132.364 414.125 132.273 413.907 132.273 413.64C132.273 413.373 132.364 413.16 132.545 413C132.737 412.829 132.983 412.744 133.281 412.744C133.569 412.744 133.804 412.829 133.985 413C134.167 413.16 134.257 413.373 134.257 413.64C134.257 413.907 134.167 414.125 133.985 414.296C133.804 414.456 133.569 414.536 133.281 414.536ZM130.833 427.88H131.441C131.825 427.88 132.103 427.795 132.273 427.624C132.455 427.453 132.545 427.16 132.545 426.744V416.216H134.017V426.792C134.017 428.371 133.217 429.16 131.617 429.16H130.833V427.88ZM140.324 416.104C141.167 416.104 141.919 416.285 142.58 416.648C143.252 417.011 143.775 417.533 144.148 418.216C144.532 418.899 144.724 419.699 144.724 420.616C144.724 421.533 144.532 422.333 144.148 423.016C143.775 423.688 143.252 424.205 142.58 424.568C141.919 424.931 141.167 425.112 140.324 425.112C139.481 425.112 138.724 424.931 138.052 424.568C137.391 424.205 136.868 423.688 136.484 423.016C136.1 422.333 135.908 421.533 135.908 420.616C135.908 419.699 136.1 418.899 136.484 418.216C136.868 417.533 137.391 417.011 138.052 416.648C138.724 416.285 139.481 416.104 140.324 416.104ZM140.324 417.384C139.801 417.384 139.316 417.501 138.868 417.736C138.431 417.971 138.073 418.333 137.796 418.824C137.529 419.304 137.396 419.901 137.396 420.616C137.396 421.32 137.529 421.917 137.796 422.408C138.073 422.888 138.431 423.245 138.868 423.48C139.316 423.715 139.801 423.832 140.324 423.832C140.847 423.832 141.327 423.715 141.764 423.48C142.212 423.245 142.569 422.888 142.836 422.408C143.113 421.917 143.252 421.32 143.252 420.616C143.252 419.901 143.113 419.304 142.836 418.824C142.569 418.333 142.212 417.971 141.764 417.736C141.327 417.501 140.847 417.384 140.324 417.384ZM148.077 417.992C148.365 417.384 148.786 416.915 149.341 416.584C149.896 416.243 150.557 416.072 151.325 416.072V417.656H150.877C150.056 417.656 149.384 417.869 148.861 418.296C148.338 418.712 148.077 419.405 148.077 420.376V425H146.621V416.216H148.077V417.992ZM152.506 413.64C152.506 413.373 152.596 413.16 152.778 413C152.959 412.829 153.199 412.744 153.498 412.744C153.796 412.744 154.036 412.829 154.218 413C154.399 413.16 154.49 413.373 154.49 413.64C154.49 413.907 154.399 414.125 154.218 414.296C154.036 414.456 153.796 414.536 153.498 414.536C153.199 414.536 152.959 414.456 152.778 414.296C152.596 414.125 152.506 413.907 152.506 413.64ZM154.218 416.216V425H152.762V416.216H154.218ZM160.751 423.72V425H159.663C158.767 425 158.095 424.787 157.647 424.36C157.209 423.933 156.991 423.219 156.991 422.216V417.48H155.679V416.216H156.991V414.024H158.463V416.216H160.735V417.48H158.463V422.248C158.463 422.813 158.564 423.203 158.767 423.416C158.98 423.619 159.343 423.72 159.855 423.72H160.751ZM163.135 416.216L165.983 423.128L168.623 416.216H170.239L165.023 429.16H163.375L165.199 424.856L161.503 416.216H163.135ZM180.151 416.072C181.175 416.072 182.002 416.403 182.631 417.064C183.261 417.715 183.575 418.659 183.575 419.896V425H182.119V420.024C182.119 419.149 181.895 418.477 181.447 418.008C180.999 417.539 180.391 417.304 179.623 417.304C178.823 417.304 178.183 417.565 177.703 418.088C177.223 418.6 176.983 419.352 176.983 420.344V425H175.527V413.16H176.983V418.296C177.207 417.581 177.602 417.032 178.167 416.648C178.743 416.264 179.405 416.072 180.151 416.072ZM189.409 416.104C190.262 416.104 190.982 416.317 191.569 416.744C192.166 417.171 192.582 417.741 192.817 418.456V416.216H194.273V425H192.817V422.76C192.582 423.475 192.166 424.045 191.569 424.472C190.982 424.899 190.262 425.112 189.409 425.112C188.63 425.112 187.937 424.931 187.329 424.568C186.721 424.205 186.241 423.688 185.889 423.016C185.547 422.333 185.377 421.533 185.377 420.616C185.377 419.699 185.547 418.899 185.889 418.216C186.241 417.533 186.721 417.011 187.329 416.648C187.937 416.285 188.63 416.104 189.409 416.104ZM189.825 417.4C188.929 417.4 188.209 417.688 187.665 418.264C187.131 418.829 186.865 419.613 186.865 420.616C186.865 421.619 187.131 422.408 187.665 422.984C188.209 423.549 188.929 423.832 189.825 423.832C190.401 423.832 190.913 423.699 191.361 423.432C191.819 423.165 192.177 422.792 192.433 422.312C192.689 421.821 192.817 421.256 192.817 420.616C192.817 419.976 192.689 419.411 192.433 418.92C192.177 418.429 191.819 418.056 191.361 417.8C190.913 417.533 190.401 417.4 189.825 417.4ZM199.998 423.448L202.718 416.216H204.286L200.846 425H199.118L195.678 416.216H197.246L199.998 423.448ZM213.795 420.12C213.795 420.429 213.774 420.696 213.731 420.92H206.707C206.739 421.923 207.022 422.675 207.555 423.176C208.099 423.677 208.76 423.928 209.539 423.928C210.243 423.928 210.83 423.752 211.299 423.4C211.779 423.037 212.072 422.557 212.179 421.96H213.731C213.624 422.568 213.384 423.112 213.011 423.592C212.648 424.072 212.174 424.445 211.587 424.712C211 424.979 210.339 425.112 209.603 425.112C208.76 425.112 208.014 424.931 207.363 424.568C206.712 424.205 206.2 423.688 205.827 423.016C205.464 422.333 205.283 421.533 205.283 420.616C205.283 419.699 205.464 418.899 205.827 418.216C206.2 417.533 206.712 417.011 207.363 416.648C208.014 416.285 208.76 416.104 209.603 416.104C210.456 416.104 211.198 416.285 211.827 416.648C212.467 417.011 212.952 417.496 213.283 418.104C213.624 418.712 213.795 419.384 213.795 420.12ZM212.323 420.216C212.355 419.565 212.248 419.021 212.003 418.584C211.758 418.147 211.422 417.821 210.995 417.608C210.568 417.395 210.104 417.288 209.603 417.288C208.803 417.288 208.131 417.539 207.587 418.04C207.043 418.531 206.75 419.256 206.707 420.216H212.323Z" fill="white"/>
<defs>
<linearGradient id="paint0_linear_1_257" x1="222.723" y1="464" x2="228.025" y2="-9.5793" gradientUnits="userSpaceOnUse">
<stop stop-color="#FD5C30"/>
<stop offset="1" stop-opacity="0"/>
</linearGradient>
</defs>
</svg>
